<mxfile host="app.diagrams.net" modified="2023-07-05T18:44:45.984Z" agent="Mozilla/5.0 (Macintosh; Intel Mac OS X 10_15_7) AppleWebKit/537.36 (KHTML, like Gecko) Chrome/114.0.0.0 Safari/537.36" etag="Cd6pv-3jtegA_ihwUIme" version="21.4.0" type="device">
  <diagram name="Page-1" id="WtzzcQmOFewp-zkcti-L">
    <mxGraphModel dx="969" dy="545" grid="1" gridSize="10" guides="1" tooltips="1" connect="1" arrows="1" fold="1" page="1" pageScale="1" pageWidth="827" pageHeight="1169" math="0" shadow="0">
      <root>
        <mxCell id="0" />
        <mxCell id="1" parent="0" />
        <mxCell id="aKiWD4lnwsIZx4lJDjJ6-1" value="" style="shape=table;startSize=0;container=1;collapsible=0;childLayout=tableLayout;" vertex="1" parent="1">
          <mxGeometry x="40" y="80" width="760" height="40" as="geometry" />
        </mxCell>
        <mxCell id="aKiWD4lnwsIZx4lJDjJ6-2" value="" style="shape=tableRow;horizontal=0;startSize=0;swimlaneHead=0;swimlaneBody=0;strokeColor=inherit;top=0;left=0;bottom=0;right=0;collapsible=0;dropTarget=0;fillColor=none;points=[[0,0.5],[1,0.5]];portConstraint=eastwest;" vertex="1" parent="aKiWD4lnwsIZx4lJDjJ6-1">
          <mxGeometry width="760" height="40" as="geometry" />
        </mxCell>
        <mxCell id="aKiWD4lnwsIZx4lJDjJ6-3" value="&lt;u&gt;SSN&lt;/u&gt;" style="shape=partialRectangle;html=1;whiteSpace=wrap;connectable=0;strokeColor=inherit;overflow=hidden;fillColor=none;top=0;left=0;bottom=0;right=0;pointerEvents=1;" vertex="1" parent="aKiWD4lnwsIZx4lJDjJ6-2">
          <mxGeometry width="76" height="40" as="geometry">
            <mxRectangle width="76" height="40" as="alternateBounds" />
          </mxGeometry>
        </mxCell>
        <mxCell id="aKiWD4lnwsIZx4lJDjJ6-4" value="FNAME" style="shape=partialRectangle;html=1;whiteSpace=wrap;connectable=0;strokeColor=inherit;overflow=hidden;fillColor=none;top=0;left=0;bottom=0;right=0;pointerEvents=1;" vertex="1" parent="aKiWD4lnwsIZx4lJDjJ6-2">
          <mxGeometry x="76" width="76" height="40" as="geometry">
            <mxRectangle width="76" height="40" as="alternateBounds" />
          </mxGeometry>
        </mxCell>
        <mxCell id="aKiWD4lnwsIZx4lJDjJ6-5" value="LNAME" style="shape=partialRectangle;html=1;whiteSpace=wrap;connectable=0;strokeColor=inherit;overflow=hidden;fillColor=none;top=0;left=0;bottom=0;right=0;pointerEvents=1;" vertex="1" parent="aKiWD4lnwsIZx4lJDjJ6-2">
          <mxGeometry x="152" width="76" height="40" as="geometry">
            <mxRectangle width="76" height="40" as="alternateBounds" />
          </mxGeometry>
        </mxCell>
        <mxCell id="aKiWD4lnwsIZx4lJDjJ6-6" value="BDATE" style="shape=partialRectangle;html=1;whiteSpace=wrap;connectable=0;strokeColor=inherit;overflow=hidden;fillColor=none;top=0;left=0;bottom=0;right=0;pointerEvents=1;" vertex="1" parent="aKiWD4lnwsIZx4lJDjJ6-2">
          <mxGeometry x="228" width="76" height="40" as="geometry">
            <mxRectangle width="76" height="40" as="alternateBounds" />
          </mxGeometry>
        </mxCell>
        <mxCell id="aKiWD4lnwsIZx4lJDjJ6-7" value="SALARY" style="shape=partialRectangle;html=1;whiteSpace=wrap;connectable=0;strokeColor=inherit;overflow=hidden;fillColor=none;top=0;left=0;bottom=0;right=0;pointerEvents=1;" vertex="1" parent="aKiWD4lnwsIZx4lJDjJ6-2">
          <mxGeometry x="304" width="76" height="40" as="geometry">
            <mxRectangle width="76" height="40" as="alternateBounds" />
          </mxGeometry>
        </mxCell>
        <mxCell id="aKiWD4lnwsIZx4lJDjJ6-8" value="SUPER_SSN" style="shape=partialRectangle;html=1;whiteSpace=wrap;connectable=0;strokeColor=inherit;overflow=hidden;fillColor=none;top=0;left=0;bottom=0;right=0;pointerEvents=1;" vertex="1" parent="aKiWD4lnwsIZx4lJDjJ6-2">
          <mxGeometry x="380" width="90" height="40" as="geometry">
            <mxRectangle width="90" height="40" as="alternateBounds" />
          </mxGeometry>
        </mxCell>
        <mxCell id="aKiWD4lnwsIZx4lJDjJ6-9" value="DNO" style="shape=partialRectangle;html=1;whiteSpace=wrap;connectable=0;strokeColor=inherit;overflow=hidden;fillColor=none;top=0;left=0;bottom=0;right=0;pointerEvents=1;" vertex="1" parent="aKiWD4lnwsIZx4lJDjJ6-2">
          <mxGeometry x="470" width="62" height="40" as="geometry">
            <mxRectangle width="62" height="40" as="alternateBounds" />
          </mxGeometry>
        </mxCell>
        <mxCell id="aKiWD4lnwsIZx4lJDjJ6-10" value="MINIT" style="shape=partialRectangle;html=1;whiteSpace=wrap;connectable=0;strokeColor=inherit;overflow=hidden;fillColor=none;top=0;left=0;bottom=0;right=0;pointerEvents=1;" vertex="1" parent="aKiWD4lnwsIZx4lJDjJ6-2">
          <mxGeometry x="532" width="76" height="40" as="geometry">
            <mxRectangle width="76" height="40" as="alternateBounds" />
          </mxGeometry>
        </mxCell>
        <mxCell id="aKiWD4lnwsIZx4lJDjJ6-11" value="ADDRESS" style="shape=partialRectangle;html=1;whiteSpace=wrap;connectable=0;strokeColor=inherit;overflow=hidden;fillColor=none;top=0;left=0;bottom=0;right=0;pointerEvents=1;" vertex="1" parent="aKiWD4lnwsIZx4lJDjJ6-2">
          <mxGeometry x="608" width="76" height="40" as="geometry">
            <mxRectangle width="76" height="40" as="alternateBounds" />
          </mxGeometry>
        </mxCell>
        <mxCell id="aKiWD4lnwsIZx4lJDjJ6-12" value="GENDER" style="shape=partialRectangle;html=1;whiteSpace=wrap;connectable=0;strokeColor=inherit;overflow=hidden;fillColor=none;top=0;left=0;bottom=0;right=0;pointerEvents=1;" vertex="1" parent="aKiWD4lnwsIZx4lJDjJ6-2">
          <mxGeometry x="684" width="76" height="40" as="geometry">
            <mxRectangle width="76" height="40" as="alternateBounds" />
          </mxGeometry>
        </mxCell>
        <mxCell id="aKiWD4lnwsIZx4lJDjJ6-16" value="" style="edgeStyle=none;orthogonalLoop=1;jettySize=auto;html=1;rounded=0;exitX=0.553;exitY=1.014;exitDx=0;exitDy=0;exitPerimeter=0;entryX=0.079;entryY=1.053;entryDx=0;entryDy=0;entryPerimeter=0;" edge="1" parent="aKiWD4lnwsIZx4lJDjJ6-1" source="aKiWD4lnwsIZx4lJDjJ6-2" target="aKiWD4lnwsIZx4lJDjJ6-2">
          <mxGeometry width="100" relative="1" as="geometry">
            <mxPoint x="410" y="60" as="sourcePoint" />
            <mxPoint x="40" y="60" as="targetPoint" />
            <Array as="points">
              <mxPoint x="420" y="60" />
              <mxPoint x="60" y="60" />
            </Array>
          </mxGeometry>
        </mxCell>
        <mxCell id="aKiWD4lnwsIZx4lJDjJ6-13" value="EMPLOYEE" style="text;html=1;align=center;verticalAlign=middle;resizable=0;points=[];autosize=1;strokeColor=none;fillColor=none;" vertex="1" parent="1">
          <mxGeometry x="40" y="50" width="90" height="30" as="geometry" />
        </mxCell>
        <mxCell id="aKiWD4lnwsIZx4lJDjJ6-17" value="" style="shape=table;startSize=0;container=1;collapsible=0;childLayout=tableLayout;" vertex="1" parent="1">
          <mxGeometry x="40" y="200" width="480" height="40" as="geometry" />
        </mxCell>
        <mxCell id="aKiWD4lnwsIZx4lJDjJ6-18" value="" style="shape=tableRow;horizontal=0;startSize=0;swimlaneHead=0;swimlaneBody=0;strokeColor=inherit;top=0;left=0;bottom=0;right=0;collapsible=0;dropTarget=0;fillColor=none;points=[[0,0.5],[1,0.5]];portConstraint=eastwest;" vertex="1" parent="aKiWD4lnwsIZx4lJDjJ6-17">
          <mxGeometry width="480" height="40" as="geometry" />
        </mxCell>
        <mxCell id="aKiWD4lnwsIZx4lJDjJ6-19" value="&lt;u&gt;DNO&lt;/u&gt;" style="shape=partialRectangle;html=1;whiteSpace=wrap;connectable=0;strokeColor=inherit;overflow=hidden;fillColor=none;top=0;left=0;bottom=0;right=0;pointerEvents=1;" vertex="1" parent="aKiWD4lnwsIZx4lJDjJ6-18">
          <mxGeometry width="121" height="40" as="geometry">
            <mxRectangle width="121" height="40" as="alternateBounds" />
          </mxGeometry>
        </mxCell>
        <mxCell id="aKiWD4lnwsIZx4lJDjJ6-20" value="DNAME" style="shape=partialRectangle;html=1;whiteSpace=wrap;connectable=0;strokeColor=inherit;overflow=hidden;fillColor=none;top=0;left=0;bottom=0;right=0;pointerEvents=1;" vertex="1" parent="aKiWD4lnwsIZx4lJDjJ6-18">
          <mxGeometry x="121" width="119" height="40" as="geometry">
            <mxRectangle width="119" height="40" as="alternateBounds" />
          </mxGeometry>
        </mxCell>
        <mxCell id="aKiWD4lnwsIZx4lJDjJ6-21" value="MGR_SSN" style="shape=partialRectangle;html=1;whiteSpace=wrap;connectable=0;strokeColor=inherit;overflow=hidden;fillColor=none;top=0;left=0;bottom=0;right=0;pointerEvents=1;" vertex="1" parent="aKiWD4lnwsIZx4lJDjJ6-18">
          <mxGeometry x="240" width="121" height="40" as="geometry">
            <mxRectangle width="121" height="40" as="alternateBounds" />
          </mxGeometry>
        </mxCell>
        <mxCell id="aKiWD4lnwsIZx4lJDjJ6-22" value="MGR_START_DATE" style="shape=partialRectangle;html=1;whiteSpace=wrap;connectable=0;strokeColor=inherit;overflow=hidden;fillColor=none;top=0;left=0;bottom=0;right=0;pointerEvents=1;" vertex="1" parent="aKiWD4lnwsIZx4lJDjJ6-18">
          <mxGeometry x="361" width="119" height="40" as="geometry">
            <mxRectangle width="119" height="40" as="alternateBounds" />
          </mxGeometry>
        </mxCell>
        <mxCell id="aKiWD4lnwsIZx4lJDjJ6-23" value="DEPARTMENT" style="text;html=1;align=center;verticalAlign=middle;resizable=0;points=[];autosize=1;strokeColor=none;fillColor=none;" vertex="1" parent="1">
          <mxGeometry x="40" y="170" width="110" height="30" as="geometry" />
        </mxCell>
        <mxCell id="aKiWD4lnwsIZx4lJDjJ6-24" value="DEPT_LOCATION" style="text;html=1;align=center;verticalAlign=middle;resizable=0;points=[];autosize=1;strokeColor=none;fillColor=none;" vertex="1" parent="1">
          <mxGeometry x="40" y="290" width="120" height="30" as="geometry" />
        </mxCell>
        <mxCell id="aKiWD4lnwsIZx4lJDjJ6-25" value="" style="shape=table;startSize=0;container=1;collapsible=0;childLayout=tableLayout;" vertex="1" parent="1">
          <mxGeometry x="40" y="320" width="200" height="40" as="geometry" />
        </mxCell>
        <mxCell id="aKiWD4lnwsIZx4lJDjJ6-26" value="" style="shape=tableRow;horizontal=0;startSize=0;swimlaneHead=0;swimlaneBody=0;strokeColor=inherit;top=0;left=0;bottom=0;right=0;collapsible=0;dropTarget=0;fillColor=none;points=[[0,0.5],[1,0.5]];portConstraint=eastwest;" vertex="1" parent="aKiWD4lnwsIZx4lJDjJ6-25">
          <mxGeometry width="200" height="40" as="geometry" />
        </mxCell>
        <mxCell id="aKiWD4lnwsIZx4lJDjJ6-27" value="&lt;u&gt;DNO&lt;/u&gt;" style="shape=partialRectangle;html=1;whiteSpace=wrap;connectable=0;strokeColor=inherit;overflow=hidden;fillColor=none;top=0;left=0;bottom=0;right=0;pointerEvents=1;" vertex="1" parent="aKiWD4lnwsIZx4lJDjJ6-26">
          <mxGeometry width="100" height="40" as="geometry">
            <mxRectangle width="100" height="40" as="alternateBounds" />
          </mxGeometry>
        </mxCell>
        <mxCell id="aKiWD4lnwsIZx4lJDjJ6-28" value="&lt;u&gt;LOCATION&lt;/u&gt;" style="shape=partialRectangle;html=1;whiteSpace=wrap;connectable=0;strokeColor=inherit;overflow=hidden;fillColor=none;top=0;left=0;bottom=0;right=0;pointerEvents=1;" vertex="1" parent="aKiWD4lnwsIZx4lJDjJ6-26">
          <mxGeometry x="100" width="100" height="40" as="geometry">
            <mxRectangle width="100" height="40" as="alternateBounds" />
          </mxGeometry>
        </mxCell>
        <mxCell id="aKiWD4lnwsIZx4lJDjJ6-29" value="PROJECT" style="text;html=1;align=center;verticalAlign=middle;resizable=0;points=[];autosize=1;strokeColor=none;fillColor=none;" vertex="1" parent="1">
          <mxGeometry x="40" y="410" width="80" height="30" as="geometry" />
        </mxCell>
        <mxCell id="aKiWD4lnwsIZx4lJDjJ6-30" value="" style="shape=table;startSize=0;container=1;collapsible=0;childLayout=tableLayout;" vertex="1" parent="1">
          <mxGeometry x="40" y="440" width="320" height="40" as="geometry" />
        </mxCell>
        <mxCell id="aKiWD4lnwsIZx4lJDjJ6-31" value="" style="shape=tableRow;horizontal=0;startSize=0;swimlaneHead=0;swimlaneBody=0;strokeColor=inherit;top=0;left=0;bottom=0;right=0;collapsible=0;dropTarget=0;fillColor=none;points=[[0,0.5],[1,0.5]];portConstraint=eastwest;" vertex="1" parent="aKiWD4lnwsIZx4lJDjJ6-30">
          <mxGeometry width="320" height="40" as="geometry" />
        </mxCell>
        <mxCell id="aKiWD4lnwsIZx4lJDjJ6-32" value="&lt;u&gt;PNO&lt;/u&gt;" style="shape=partialRectangle;html=1;whiteSpace=wrap;connectable=0;strokeColor=inherit;overflow=hidden;fillColor=none;top=0;left=0;bottom=0;right=0;pointerEvents=1;" vertex="1" parent="aKiWD4lnwsIZx4lJDjJ6-31">
          <mxGeometry width="80" height="40" as="geometry">
            <mxRectangle width="80" height="40" as="alternateBounds" />
          </mxGeometry>
        </mxCell>
        <mxCell id="aKiWD4lnwsIZx4lJDjJ6-33" value="NAME" style="shape=partialRectangle;html=1;whiteSpace=wrap;connectable=0;strokeColor=inherit;overflow=hidden;fillColor=none;top=0;left=0;bottom=0;right=0;pointerEvents=1;" vertex="1" parent="aKiWD4lnwsIZx4lJDjJ6-31">
          <mxGeometry x="80" width="80" height="40" as="geometry">
            <mxRectangle width="80" height="40" as="alternateBounds" />
          </mxGeometry>
        </mxCell>
        <mxCell id="aKiWD4lnwsIZx4lJDjJ6-34" value="LOCATION" style="shape=partialRectangle;html=1;whiteSpace=wrap;connectable=0;strokeColor=inherit;overflow=hidden;fillColor=none;top=0;left=0;bottom=0;right=0;pointerEvents=1;" vertex="1" parent="aKiWD4lnwsIZx4lJDjJ6-31">
          <mxGeometry x="160" width="80" height="40" as="geometry">
            <mxRectangle width="80" height="40" as="alternateBounds" />
          </mxGeometry>
        </mxCell>
        <mxCell id="aKiWD4lnwsIZx4lJDjJ6-35" value="DNO" style="shape=partialRectangle;html=1;whiteSpace=wrap;connectable=0;strokeColor=inherit;overflow=hidden;fillColor=none;top=0;left=0;bottom=0;right=0;pointerEvents=1;" vertex="1" parent="aKiWD4lnwsIZx4lJDjJ6-31">
          <mxGeometry x="240" width="80" height="40" as="geometry">
            <mxRectangle width="80" height="40" as="alternateBounds" />
          </mxGeometry>
        </mxCell>
        <mxCell id="aKiWD4lnwsIZx4lJDjJ6-36" value="WORKS_ON" style="text;html=1;align=center;verticalAlign=middle;resizable=0;points=[];autosize=1;strokeColor=none;fillColor=none;" vertex="1" parent="1">
          <mxGeometry x="40" y="530" width="90" height="30" as="geometry" />
        </mxCell>
        <mxCell id="aKiWD4lnwsIZx4lJDjJ6-37" value="" style="shape=table;startSize=0;container=1;collapsible=0;childLayout=tableLayout;" vertex="1" parent="1">
          <mxGeometry x="40" y="560" width="280" height="40" as="geometry" />
        </mxCell>
        <mxCell id="aKiWD4lnwsIZx4lJDjJ6-38" value="" style="shape=tableRow;horizontal=0;startSize=0;swimlaneHead=0;swimlaneBody=0;strokeColor=inherit;top=0;left=0;bottom=0;right=0;collapsible=0;dropTarget=0;fillColor=none;points=[[0,0.5],[1,0.5]];portConstraint=eastwest;" vertex="1" parent="aKiWD4lnwsIZx4lJDjJ6-37">
          <mxGeometry width="280" height="40" as="geometry" />
        </mxCell>
        <mxCell id="aKiWD4lnwsIZx4lJDjJ6-39" value="ESSN" style="shape=partialRectangle;html=1;whiteSpace=wrap;connectable=0;strokeColor=inherit;overflow=hidden;fillColor=none;top=0;left=0;bottom=0;right=0;pointerEvents=1;" vertex="1" parent="aKiWD4lnwsIZx4lJDjJ6-38">
          <mxGeometry width="93" height="40" as="geometry">
            <mxRectangle width="93" height="40" as="alternateBounds" />
          </mxGeometry>
        </mxCell>
        <mxCell id="aKiWD4lnwsIZx4lJDjJ6-40" value="PNO" style="shape=partialRectangle;html=1;whiteSpace=wrap;connectable=0;strokeColor=inherit;overflow=hidden;fillColor=none;top=0;left=0;bottom=0;right=0;pointerEvents=1;" vertex="1" parent="aKiWD4lnwsIZx4lJDjJ6-38">
          <mxGeometry x="93" width="94" height="40" as="geometry">
            <mxRectangle width="94" height="40" as="alternateBounds" />
          </mxGeometry>
        </mxCell>
        <mxCell id="aKiWD4lnwsIZx4lJDjJ6-41" value="HOURS" style="shape=partialRectangle;html=1;whiteSpace=wrap;connectable=0;strokeColor=inherit;overflow=hidden;fillColor=none;top=0;left=0;bottom=0;right=0;pointerEvents=1;" vertex="1" parent="aKiWD4lnwsIZx4lJDjJ6-38">
          <mxGeometry x="187" width="93" height="40" as="geometry">
            <mxRectangle width="93" height="40" as="alternateBounds" />
          </mxGeometry>
        </mxCell>
        <mxCell id="aKiWD4lnwsIZx4lJDjJ6-42" value="DEPENDENT" style="text;html=1;align=center;verticalAlign=middle;resizable=0;points=[];autosize=1;strokeColor=none;fillColor=none;" vertex="1" parent="1">
          <mxGeometry x="40" y="650" width="100" height="30" as="geometry" />
        </mxCell>
        <mxCell id="aKiWD4lnwsIZx4lJDjJ6-43" value="" style="shape=table;startSize=0;container=1;collapsible=0;childLayout=tableLayout;" vertex="1" parent="1">
          <mxGeometry x="40" y="680" width="460" height="40" as="geometry" />
        </mxCell>
        <mxCell id="aKiWD4lnwsIZx4lJDjJ6-44" value="" style="shape=tableRow;horizontal=0;startSize=0;swimlaneHead=0;swimlaneBody=0;strokeColor=inherit;top=0;left=0;bottom=0;right=0;collapsible=0;dropTarget=0;fillColor=none;points=[[0,0.5],[1,0.5]];portConstraint=eastwest;" vertex="1" parent="aKiWD4lnwsIZx4lJDjJ6-43">
          <mxGeometry width="460" height="40" as="geometry" />
        </mxCell>
        <mxCell id="aKiWD4lnwsIZx4lJDjJ6-45" value="ESSN" style="shape=partialRectangle;html=1;whiteSpace=wrap;connectable=0;strokeColor=inherit;overflow=hidden;fillColor=none;top=0;left=0;bottom=0;right=0;pointerEvents=1;" vertex="1" parent="aKiWD4lnwsIZx4lJDjJ6-44">
          <mxGeometry width="92" height="40" as="geometry">
            <mxRectangle width="92" height="40" as="alternateBounds" />
          </mxGeometry>
        </mxCell>
        <mxCell id="aKiWD4lnwsIZx4lJDjJ6-46" value="NAME" style="shape=partialRectangle;html=1;whiteSpace=wrap;connectable=0;strokeColor=inherit;overflow=hidden;fillColor=none;top=0;left=0;bottom=0;right=0;pointerEvents=1;" vertex="1" parent="aKiWD4lnwsIZx4lJDjJ6-44">
          <mxGeometry x="92" width="92" height="40" as="geometry">
            <mxRectangle width="92" height="40" as="alternateBounds" />
          </mxGeometry>
        </mxCell>
        <mxCell id="aKiWD4lnwsIZx4lJDjJ6-47" value="GENDER" style="shape=partialRectangle;html=1;whiteSpace=wrap;connectable=0;strokeColor=inherit;overflow=hidden;fillColor=none;top=0;left=0;bottom=0;right=0;pointerEvents=1;" vertex="1" parent="aKiWD4lnwsIZx4lJDjJ6-44">
          <mxGeometry x="184" width="92" height="40" as="geometry">
            <mxRectangle width="92" height="40" as="alternateBounds" />
          </mxGeometry>
        </mxCell>
        <mxCell id="aKiWD4lnwsIZx4lJDjJ6-48" value="BDATE" style="shape=partialRectangle;html=1;whiteSpace=wrap;connectable=0;strokeColor=inherit;overflow=hidden;fillColor=none;top=0;left=0;bottom=0;right=0;pointerEvents=1;" vertex="1" parent="aKiWD4lnwsIZx4lJDjJ6-44">
          <mxGeometry x="276" width="92" height="40" as="geometry">
            <mxRectangle width="92" height="40" as="alternateBounds" />
          </mxGeometry>
        </mxCell>
        <mxCell id="aKiWD4lnwsIZx4lJDjJ6-49" value="RELATIONSHIP" style="shape=partialRectangle;html=1;whiteSpace=wrap;connectable=0;strokeColor=inherit;overflow=hidden;fillColor=none;top=0;left=0;bottom=0;right=0;pointerEvents=1;" vertex="1" parent="aKiWD4lnwsIZx4lJDjJ6-44">
          <mxGeometry x="368" width="92" height="40" as="geometry">
            <mxRectangle width="92" height="40" as="alternateBounds" />
          </mxGeometry>
        </mxCell>
        <mxCell id="aKiWD4lnwsIZx4lJDjJ6-50" value="" style="edgeStyle=none;orthogonalLoop=1;jettySize=auto;html=1;rounded=0;exitX=0.635;exitY=-0.014;exitDx=0;exitDy=0;exitPerimeter=0;entryX=0.039;entryY=0.956;entryDx=0;entryDy=0;entryPerimeter=0;" edge="1" parent="1" source="aKiWD4lnwsIZx4lJDjJ6-18" target="aKiWD4lnwsIZx4lJDjJ6-2">
          <mxGeometry width="100" relative="1" as="geometry">
            <mxPoint x="300" y="190" as="sourcePoint" />
            <mxPoint x="400" y="190" as="targetPoint" />
            <Array as="points">
              <mxPoint x="345" y="160" />
              <mxPoint x="70" y="160" />
            </Array>
          </mxGeometry>
        </mxCell>
        <mxCell id="aKiWD4lnwsIZx4lJDjJ6-51" value="" style="edgeStyle=none;orthogonalLoop=1;jettySize=auto;html=1;rounded=0;exitX=0.25;exitY=1.036;exitDx=0;exitDy=0;exitPerimeter=0;" edge="1" parent="1" source="aKiWD4lnwsIZx4lJDjJ6-26">
          <mxGeometry width="100" relative="1" as="geometry">
            <mxPoint x="50" y="380" as="sourcePoint" />
            <mxPoint x="109" y="240" as="targetPoint" />
            <Array as="points">
              <mxPoint x="90" y="380" />
              <mxPoint x="280" y="380" />
              <mxPoint x="280" y="270" />
              <mxPoint x="109" y="270" />
            </Array>
          </mxGeometry>
        </mxCell>
        <mxCell id="aKiWD4lnwsIZx4lJDjJ6-53" value="" style="edgeStyle=none;orthogonalLoop=1;jettySize=auto;html=1;rounded=0;exitX=0.667;exitY=1.111;exitDx=0;exitDy=0;exitPerimeter=0;entryX=0.104;entryY=0.986;entryDx=0;entryDy=0;entryPerimeter=0;" edge="1" parent="1" source="aKiWD4lnwsIZx4lJDjJ6-2" target="aKiWD4lnwsIZx4lJDjJ6-18">
          <mxGeometry width="100" relative="1" as="geometry">
            <mxPoint x="500" y="130" as="sourcePoint" />
            <mxPoint x="600" y="130" as="targetPoint" />
            <Array as="points">
              <mxPoint x="547" y="280" />
              <mxPoint x="90" y="280" />
            </Array>
          </mxGeometry>
        </mxCell>
        <mxCell id="aKiWD4lnwsIZx4lJDjJ6-54" value="" style="edgeStyle=none;orthogonalLoop=1;jettySize=auto;html=1;rounded=0;exitX=0.844;exitY=0.959;exitDx=0;exitDy=0;exitPerimeter=0;entryX=0.187;entryY=1.08;entryDx=0;entryDy=0;entryPerimeter=0;" edge="1" parent="1" source="aKiWD4lnwsIZx4lJDjJ6-31" target="aKiWD4lnwsIZx4lJDjJ6-18">
          <mxGeometry width="100" relative="1" as="geometry">
            <mxPoint x="260" y="490" as="sourcePoint" />
            <mxPoint x="360" y="490" as="targetPoint" />
            <Array as="points">
              <mxPoint x="310" y="490" />
              <mxPoint x="340" y="490" />
              <mxPoint x="400" y="490" />
              <mxPoint x="400" y="260" />
              <mxPoint x="130" y="260" />
            </Array>
          </mxGeometry>
        </mxCell>
        <mxCell id="aKiWD4lnwsIZx4lJDjJ6-55" value="" style="edgeStyle=none;orthogonalLoop=1;jettySize=auto;html=1;rounded=0;exitX=0.485;exitY=1.097;exitDx=0;exitDy=0;exitPerimeter=0;entryX=0.112;entryY=1.125;entryDx=0;entryDy=0;entryPerimeter=0;" edge="1" parent="1" source="aKiWD4lnwsIZx4lJDjJ6-38" target="aKiWD4lnwsIZx4lJDjJ6-31">
          <mxGeometry width="100" relative="1" as="geometry">
            <mxPoint x="160" y="630" as="sourcePoint" />
            <mxPoint x="70" y="520" as="targetPoint" />
            <Array as="points">
              <mxPoint x="176" y="620" />
              <mxPoint x="340" y="620" />
              <mxPoint x="340" y="510" />
              <mxPoint x="76" y="510" />
            </Array>
          </mxGeometry>
        </mxCell>
      </root>
    </mxGraphModel>
  </diagram>
</mxfile>
